<svg width="632" height="124" viewBox="0 0 632 124" fill="none" xmlns="http://www.w3.org/2000/svg">
<path d="M55.3359 121.701C52.0613 121.701 49.6565 120.012 48.1215 116.635L3.1468 13.7921C1.71416 10.3128 1.56066 7.44752 2.68631 5.19622C3.81196 2.94493 5.96092 1.81929 9.1332 1.81929C12.7148 1.81929 15.1708 3.40543 16.5011 6.5777L55.9499 101.286H54.2614L94.4777 6.5777C95.2964 4.73574 96.2173 3.50776 97.2407 2.89377C98.3663 2.17745 99.8501 1.81929 101.692 1.81929C104.762 1.81929 106.86 2.94493 107.985 5.19622C109.213 7.34519 109.213 9.74998 107.985 12.4106L62.5503 116.635C61.8339 118.273 60.8618 119.552 59.6338 120.473C58.5082 121.291 57.0755 121.701 55.3359 121.701ZM179.745 123.236C170.74 123.236 162.503 121.752 155.032 118.784C147.562 115.714 141.115 111.468 135.692 106.044C130.37 100.518 126.226 94.02 123.258 86.5498C120.291 78.9773 118.807 70.6884 118.807 61.6832C118.807 52.6781 120.291 44.4404 123.258 36.9702C126.226 29.5 130.37 23.0531 135.692 17.6295C141.115 12.1036 147.562 7.85685 155.032 4.88923C162.503 1.81929 170.74 0.284319 179.745 0.284319C188.751 0.284319 196.937 1.81929 204.305 4.88923C211.775 7.85685 218.222 12.1036 223.646 17.6295C229.069 23.0531 233.265 29.5 236.232 36.9702C239.2 44.4404 240.684 52.6781 240.684 61.6832C240.684 70.6884 239.2 78.9773 236.232 86.5498C233.265 94.02 229.069 100.518 223.646 106.044C218.222 111.468 211.775 115.714 204.305 118.784C196.937 121.752 188.751 123.236 179.745 123.236ZM179.745 108.807C186.397 108.807 192.486 107.63 198.012 105.276C203.64 102.821 208.501 99.4947 212.594 95.2991C216.687 91.0012 219.808 85.987 221.957 80.2564C224.208 74.5258 225.334 68.3348 225.334 61.6832C225.334 55.0317 224.208 48.8406 221.957 43.1101C219.808 37.3795 216.687 32.4164 212.594 28.2208C208.501 23.9229 203.64 20.5971 198.012 18.2435C192.486 15.8899 186.397 14.7131 179.745 14.7131C173.094 14.7131 166.954 15.8899 161.326 18.2435C155.8 20.5971 150.99 23.9229 146.897 28.2208C142.906 32.4164 139.785 37.3795 137.534 43.1101C135.282 48.8406 134.157 55.0317 134.157 61.6832C134.157 68.3348 135.282 74.5258 137.534 80.2564C139.785 85.987 142.906 91.0012 146.897 95.2991C150.99 99.4947 155.8 102.821 161.326 105.276C166.954 107.63 173.094 108.807 179.745 108.807ZM321.019 123.236C312.73 123.236 304.953 121.701 297.688 118.631C290.525 115.458 284.231 111.109 278.808 105.583C273.486 99.9552 269.291 93.406 266.221 85.9358C263.253 78.4656 261.769 70.3814 261.769 61.6832C261.769 53.0874 263.253 45.1055 266.221 37.7377C269.291 30.2675 273.486 23.7694 278.808 18.2435C284.231 12.6153 290.525 8.21501 297.688 5.04273C304.851 1.87046 312.628 0.284319 321.019 0.284319C328.899 0.284319 335.653 1.30763 341.281 3.35426C347.012 5.40089 352.742 8.77783 358.473 13.4851C359.291 14.0991 359.905 14.7642 360.315 15.4805C360.826 16.0945 361.133 16.7597 361.236 17.476C361.44 18.09 361.543 18.8575 361.543 19.7785C361.543 21.7228 360.826 23.3601 359.394 24.6904C358.063 25.9184 356.426 26.6347 354.482 26.8393C352.537 26.9417 350.644 26.2765 348.802 24.8439C345.016 21.5693 341.076 19.0622 336.983 17.3225C332.992 15.5829 327.671 14.7131 321.019 14.7131C314.982 14.7131 309.302 15.941 303.981 18.397C298.66 20.853 293.953 24.2299 289.859 28.5278C285.868 32.8257 282.747 37.84 280.496 43.5706C278.245 49.1988 277.119 55.2363 277.119 61.6832C277.119 68.2325 278.245 74.3723 280.496 80.1029C282.747 85.7311 285.868 90.6942 289.859 94.9922C293.953 99.2901 298.66 102.667 303.981 105.123C309.302 107.477 314.982 108.653 321.019 108.653C326.238 108.653 331.15 107.784 335.755 106.044C340.462 104.202 344.965 101.695 349.263 98.5226C351.105 97.1923 352.896 96.6295 354.635 96.8341C356.477 96.9365 358.012 97.6528 359.24 98.9831C360.468 100.211 361.082 101.951 361.082 104.202C361.082 105.225 360.877 106.249 360.468 107.272C360.059 108.193 359.445 109.063 358.626 109.881C353.1 114.282 347.165 117.607 340.821 119.859C334.578 122.11 327.978 123.236 321.019 123.236ZM444.944 123.236C436.656 123.236 428.878 121.701 421.613 118.631C414.45 115.458 408.156 111.109 402.733 105.583C397.411 99.9552 393.216 93.406 390.146 85.9358C387.178 78.4656 385.694 70.3814 385.694 61.6832C385.694 53.0874 387.178 45.1055 390.146 37.7377C393.216 30.2675 397.411 23.7694 402.733 18.2435C408.156 12.6153 414.45 8.21501 421.613 5.04273C428.776 1.87046 436.553 0.284319 444.944 0.284319C452.824 0.284319 459.578 1.30763 465.206 3.35426C470.937 5.40089 476.667 8.77783 482.398 13.4851C483.216 14.0991 483.83 14.7642 484.24 15.4805C484.751 16.0945 485.058 16.7597 485.161 17.476C485.365 18.09 485.468 18.8575 485.468 19.7785C485.468 21.7228 484.751 23.3601 483.319 24.6904C481.988 25.9184 480.351 26.6347 478.407 26.8393C476.463 26.9417 474.569 26.2765 472.727 24.8439C468.941 21.5693 465.001 19.0622 460.908 17.3225C456.917 15.5829 451.596 14.7131 444.944 14.7131C438.907 14.7131 433.227 15.941 427.906 18.397C422.585 20.853 417.878 24.2299 413.784 28.5278C409.794 32.8257 406.672 37.84 404.421 43.5706C402.17 49.1988 401.044 55.2363 401.044 61.6832C401.044 68.2325 402.17 74.3723 404.421 80.1029C406.672 85.7311 409.794 90.6942 413.784 94.9922C417.878 99.2901 422.585 102.667 427.906 105.123C433.227 107.477 438.907 108.653 444.944 108.653C450.163 108.653 455.075 107.784 459.68 106.044C464.387 104.202 468.89 101.695 473.188 98.5226C475.03 97.1923 476.821 96.6295 478.56 96.8341C480.402 96.9365 481.937 97.6528 483.165 98.9831C484.393 100.211 485.007 101.951 485.007 104.202C485.007 105.225 484.803 106.249 484.393 107.272C483.984 108.193 483.37 109.063 482.551 109.881C477.025 114.282 471.09 117.607 464.746 119.859C458.503 122.11 451.903 123.236 444.944 123.236ZM570.558 123.236C561.553 123.236 553.315 121.752 545.845 118.784C538.375 115.714 531.928 111.468 526.504 106.044C521.183 100.518 517.039 94.02 514.071 86.5498C511.103 78.9773 509.62 70.6884 509.62 61.6832C509.62 52.6781 511.103 44.4404 514.071 36.9702C517.039 29.5 521.183 23.0531 526.504 17.6295C531.928 12.1036 538.375 7.85685 545.845 4.88923C553.315 1.81929 561.553 0.284319 570.558 0.284319C579.563 0.284319 587.75 1.81929 595.118 4.88923C602.588 7.85685 609.035 12.1036 614.458 17.6295C619.882 23.0531 624.077 29.5 627.045 36.9702C630.013 44.4404 631.496 52.6781 631.496 61.6832C631.496 70.6884 630.013 78.9773 627.045 86.5498C624.077 94.02 619.882 100.518 614.458 106.044C609.035 111.468 602.588 115.714 595.118 118.784C587.75 121.752 579.563 123.236 570.558 123.236ZM570.558 108.807C577.21 108.807 583.298 107.63 588.824 105.276C594.452 102.821 599.313 99.4947 603.406 95.2991C607.5 91.0012 610.621 85.987 612.77 80.2564C615.021 74.5258 616.147 68.3348 616.147 61.6832C616.147 55.0317 615.021 48.8406 612.77 43.1101C610.621 37.3795 607.5 32.4164 603.406 28.2208C599.313 23.9229 594.452 20.5971 588.824 18.2435C583.298 15.8899 577.21 14.7131 570.558 14.7131C563.906 14.7131 557.767 15.8899 552.138 18.2435C546.612 20.5971 541.803 23.9229 537.71 28.2208C533.719 32.4164 530.598 37.3795 528.346 43.1101C526.095 48.8406 524.969 55.0317 524.969 61.6832C524.969 68.3348 526.095 74.5258 528.346 80.2564C530.598 85.987 533.719 91.0012 537.71 95.2991C541.803 99.4947 546.612 102.821 552.138 105.276C557.767 107.63 563.906 108.807 570.558 108.807Z" fill="url(#paint0_linear_384_17113)"/>
<defs>
<linearGradient id="paint0_linear_384_17113" x1="208.075" y1="-107.289" x2="172.898" y2="164.53" gradientUnits="userSpaceOnUse">
<stop stop-color="#CF68FF"/>
<stop offset="0.403099" stop-color="#A24EE4"/>
<stop offset="1" stop-color="#4C32EC"/>
</linearGradient>
</defs>
</svg>
